# xmcd
#
# Track frame offsets:
#	150
#	21328
#	39109
#	59420
#	74092
#	97211
#	112677
#	130658
#	141329
#	160950
#	180503
#	194645
#	210330
#	225476
#	244987
#	258460
#	271212
#	289842
#	307017
#	321449
#
# Disc length: 4578
#
# Revision: 4
# Processed by: cddbd v1.5.1PL0 Copyright (c) Steve Scherf et al.
# Submitted via: dBpowerAMP V4.0
# Normalized: r3:DSETVAR1,TDELIM( - )
#
DISCID=2f11e014
DTITLE=Various Artist - Wondeful Spot
DYEAR=1998
DGENRE=Misc
TTITLE0=Babybird - If You'll Be Mine
TTITLE1=Bran Van 3000 - Drinking In L.A.
TTITLE2=Billie Myers - Kiss The Rain
TTITLE3=George Baker Selection - Little Green Bag
TTITLE4=Lighthouse Family - High
TTITLE5=Smash Mouth - Walkin' On The Sun
TTITLE6=Eagle Eye Cherry - Save Tonight
TTITLE7=The Everly Brothers - All I Have To Do Is Dream
TTITLE8=Artificial Joy Club - Sick And Beautiful
TTITLE9=The Rapsody feat. Warren G and Sissel - Prince Igor
TTITLE10=The Specials - It's You
TTITLE11=Aretha Franklin - I Say A Little Prayer
TTITLE12=Maarja - First In Line
TTITLE13=Morcheeba - Let Me See
TTITLE14=Etta James - At Last
TTITLE15=Cold Water Flat - Magnetic North Pole
TTITLE16=Diana King - L-L-Lies
TTITLE17=Acoustic Alchemy - The Notting Hill Two-Step
TTITLE18=The Mamas And The Papas - Dream A Little Dream For Me
TTITLE19=Curve - Chinese Burn
EXTD=
EXTT0=
EXTT1=
EXTT2=
EXTT3=
EXTT4=
EXTT5=
EXTT6=
EXTT7=
EXTT8=
EXTT9=
EXTT10=
EXTT11=
EXTT12=
EXTT13=
EXTT14=
EXTT15=
EXTT16=
EXTT17=
EXTT18=
EXTT19=
PLAYORDER=
